<?xml version="1.0" encoding="utf-8"?>
<!-- Generator: Adobe Illustrator 16.0.0, SVG Export Plug-In . SVG Version: 6.00 Build 0)  -->
<!DOCTYPE svg PUBLIC "-//W3C//DTD SVG 1.1//EN" "http://www.w3.org/Graphics/SVG/1.1/DTD/svg11.dtd">
<svg version="1.1" id="Layer_1" xmlns="http://www.w3.org/2000/svg" xmlns:xlink="http://www.w3.org/1999/xlink" x="0px" y="0px"
	 width="612px" height="792px" viewBox="0 0 612 792" enable-background="new 0 0 612 792" xml:space="preserve">
<g>
	<path fill="#0195D3" d="M377.104,555.998c-3.677-8.427-10.044-15.184-16.1-22.016c-3.557-4.012-7.337-7.811-11.176-11.551
		c-1.419-1.381,76.253-73.757,119.89-199.169c34.709-99.754,8.577-187.875,6.425-209.512l0.022-0.038
		c-0.037-0.021-0.072-0.059-0.107-0.089c-0.044-0.017-0.096-0.028-0.13-0.051l-0.022,0.038
		c-19.962,8.624-109.686,28.563-180.041,107.339c-88.453,99.039-114.014,202.082-115.91,201.511
		c-5.133-1.54-10.29-3.001-15.524-4.161c-8.913-1.978-17.912-4.263-27.063-3.386c-5.804,0.557-14.885,7.297-22.492,26.377
		c-6.339,15.899-9.92,32.767-14.848,49.157c-10.871,36.156-21.727,72.315-32.583,108.475c-0.272,0.91-0.651,1.812-0.329,2.968
		c1.038-0.217,1.442-0.973,1.971-1.522c32.178-33.353,64.339-66.718,96.504-100.082c0.167-0.172,0.342-0.335,0.512-0.506
		c1.441-1.449,1.448-1.458,3.106-0.115c17.852,14.462,36.914,27.141,56.627,38.876l-0.001,0.003c0.04,0.023,0.08,0.046,0.119,0.068
		c0.039,0.023,0.078,0.048,0.118,0.071l0.001-0.003c19.831,11.536,40.17,22.045,61.48,30.63c1.98,0.798,1.976,0.808,1.408,2.771
		c-0.067,0.231-0.125,0.464-0.194,0.692c-13.551,44.319-27.104,88.636-40.64,132.96c-0.223,0.729-0.687,1.449-0.373,2.462
		c1.167-0.279,1.771-1.049,2.435-1.729c26.34-27.048,52.681-54.094,79.011-81.152c11.937-12.266,24.943-23.587,35.766-36.848
		C377.953,572.554,379.436,561.342,377.104,555.998z M371.54,374.305c-15.511,1.022-30.347-2.755-42.935-10.121
		c-12.553-7.43-23.058-18.565-29.695-32.622c-17.645-37.654-1.239-81.114,34.442-98.746c23.486-11.606,50.048-9.735,71.045,2.575
		c20.958,12.38,35.489,34.692,36.747,60.859C443.054,336.005,413.025,371.449,371.54,374.305z"/>
	<path fill-rule="evenodd" clip-rule="evenodd" fill="#0195D3" d="M139.38,677.877c1.737-44.44,3.466-88.66,5.196-132.917
		c2.982,0.708,106.63,61.52,109.875,64.4C252.965,610.699,141.739,676.995,139.38,677.877z"/>
	<path fill-rule="evenodd" clip-rule="evenodd" fill="#FAFDFE" d="M371.54,374.305c-41.327,2.724-77.893-28.587-79.799-71.235
		c-1.871-41.832,30.136-75.884,70.613-77.983c41.462-2.152,76.797,29.678,78.791,71.165
		C443.054,336.005,413.025,371.449,371.54,374.305z M368.561,358.723c31.904-1.331,57.039-26.812,56.903-58.914
		c-0.141-33.306-26.94-59.592-59.728-59.002c-33.049,0.595-58.894,26.822-58.329,59.608
		C307.982,333.819,334.86,359.73,368.561,358.723z"/>
	<path fill-rule="evenodd" clip-rule="evenodd" fill="#0195D3" d="M368.561,358.723c-33.7,1.007-60.578-24.904-61.153-58.308
		c-0.564-32.786,25.28-59.013,58.329-59.608c32.787-0.589,59.587,25.697,59.728,59.002
		C425.6,331.911,400.465,357.392,368.561,358.723z M340.497,306.371c-9.173,0.675-15.811,8.382-15.17,17.61
		c0.618,8.889,8.517,15.656,17.531,15.019c8.958-0.633,15.946-8.702,15.275-17.636C357.475,312.609,349.367,305.717,340.497,306.371
		z M375.613,283.458c9.043-0.652,15.778-8.462,15.193-17.619c-0.553-8.671-8.731-15.661-17.58-15.027
		c-8.907,0.639-15.808,8.552-15.174,17.401C358.705,277.301,366.551,284.112,375.613,283.458z M402.693,310.225
		c-0.008-7.407-7.679-15.614-17.293-15.055c-8.82,0.513-15.807,8.291-15.332,17.041c0.497,9.178,8.172,16.155,17.209,15.651
		C396.463,327.347,403.246,319.589,402.693,310.225z"/>
	<path fill-rule="evenodd" clip-rule="evenodd" fill="#FAFDFE" d="M340.497,306.371c8.87-0.654,16.978,6.238,17.637,14.993
		c0.671,8.935-6.317,17.003-15.275,17.636c-9.015,0.637-16.913-6.129-17.531-15.019
		C324.687,314.753,331.324,307.046,340.497,306.371z"/>
	<path fill-rule="evenodd" clip-rule="evenodd" fill="#FAFDFE" d="M375.613,283.458c-9.062,0.653-16.908-6.157-17.561-15.245
		c-0.634-8.849,6.267-16.763,15.174-17.401c8.849-0.634,17.027,6.356,17.58,15.027C391.392,274.996,384.656,282.806,375.613,283.458
		z"/>
	<path fill-rule="evenodd" clip-rule="evenodd" fill="#FAFDFE" d="M402.693,310.225c0.553,9.365-6.23,17.122-15.416,17.637
		c-9.037,0.504-16.712-6.473-17.209-15.651c-0.475-8.75,6.512-16.528,15.332-17.041C395.015,294.61,402.686,302.817,402.693,310.225
		z"/>
</g>
</svg>
